<svg xmlns="http://www.w3.org/2000/svg" viewBox="0 0 37.588 50.317"><defs><style>.a{fill:#838389;}</style></defs><g transform="translate(-48.173)"><g transform="translate(48.173)"><path class="a" d="M84.109,4.078H77.867V1.652a1.652,1.652,0,0,0-3.3,0V4.078H68.618V1.652a1.652,1.652,0,0,0-3.3,0V4.078H59.37V1.652a1.652,1.652,0,0,0-3.3,0V4.078H49.825a1.652,1.652,0,0,0-1.652,1.652V48.666a1.652,1.652,0,0,0,1.652,1.652H84.109a1.652,1.652,0,0,0,1.652-1.652V5.729A1.652,1.652,0,0,0,84.109,4.078ZM82.458,47.014H51.476V7.381h4.59V9.309a1.652,1.652,0,0,0,3.3,0V7.381h5.946V9.309a1.652,1.652,0,0,0,3.3,0V7.381h5.946V9.309a1.652,1.652,0,0,0,3.3,0V7.381h4.59Z" transform="translate(-48.173)"/><path class="a" d="M125.122,139.758H105.568a1.652,1.652,0,0,0,0,3.3h19.554a1.652,1.652,0,1,0,0-3.3Z" transform="translate(-96.551 -121.292)"/><path class="a" d="M125.122,209.758H105.568a1.652,1.652,0,0,0,0,3.3h19.554a1.652,1.652,0,1,0,0-3.3Z" transform="translate(-96.551 -182.044)"/><path class="a" d="M125.122,279.758H105.568a1.652,1.652,0,1,0,0,3.3h19.554a1.652,1.652,0,1,0,0-3.3Z" transform="translate(-96.551 -242.795)"/></g></g></svg>