<svg xmlns="http://www.w3.org/2000/svg" viewBox="0 0 36.221 32.541"><defs><style>.a{fill:#b173c8;}</style></defs><g transform="translate(0 -16.512)"><path class="a" d="M46.843,205.879a2.959,2.959,0,0,0-1.827-.634,2.929,2.929,0,0,0-2.293,1.094,2.9,2.9,0,0,0,.466,4.1,2.958,2.958,0,0,0,1.827.635,2.927,2.927,0,0,0,2.294-1.1,2.9,2.9,0,0,0-.466-4.1Zm-.576,3.262a1.61,1.61,0,0,1-2.249.25,1.565,1.565,0,0,1-.253-2.214,1.612,1.612,0,0,1,2.249-.249,1.565,1.565,0,0,1,.253,2.213Z" transform="translate(-37.391 -167.702)"/><path class="a" d="M166.879,102.988a2.932,2.932,0,0,0,2.768-1.959,2.878,2.878,0,0,0-.13-2.222,2.945,2.945,0,0,0-3.915-1.362,2.9,2.9,0,0,0-1.37,3.893A2.959,2.959,0,0,0,166.879,102.988Zm-1.515-3.432a1.571,1.571,0,0,1,.813-.9,1.608,1.608,0,0,1,2.137.739,1.551,1.551,0,0,1,.07,1.2,1.574,1.574,0,0,1-.813.905,1.6,1.6,0,0,1-.692.157,1.614,1.614,0,0,1-1.445-.9A1.549,1.549,0,0,1,165.364,99.556Z" transform="translate(-145.67 -71.658)"/><path class="a" d="M106.818,61.178a2.973,2.973,0,0,0,.654.073,2.916,2.916,0,0,0,2.86-2.265,2.885,2.885,0,0,0-.374-2.193,2.915,2.915,0,0,0-1.836-1.3,2.972,2.972,0,0,0-.657-.074,2.913,2.913,0,0,0-2.857,2.266,2.878,2.878,0,0,0,.372,2.193A2.911,2.911,0,0,0,106.818,61.178Zm-.906-3.191a1.582,1.582,0,0,1,1.554-1.229,1.634,1.634,0,0,1,.361.041,1.587,1.587,0,0,1,1,.706,1.555,1.555,0,0,1,.2,1.182,1.6,1.6,0,0,1-1.557,1.227,1.636,1.636,0,0,1-.36-.04,1.583,1.583,0,0,1-1-.7A1.55,1.55,0,0,1,105.912,57.987Z" transform="translate(-92.885 -34.573)"/><path class="a" d="M39.373,80.621a2.905,2.905,0,0,0,.465-4.1,2.952,2.952,0,0,0-4.121-.461,2.9,2.9,0,0,0-.465,4.1,2.948,2.948,0,0,0,4.121.461Zm-3.078-1.3a1.566,1.566,0,0,1,.251-2.214,1.615,1.615,0,0,1,2.25.25,1.568,1.568,0,0,1-.254,2.215,1.611,1.611,0,0,1-2.248-.251Z" transform="translate(-30.753 -52.348)"/><path class="a" d="M35.965,21.73a.883.883,0,0,0-.647-.256c-.381,0-1.395,0-7.549,5.237l-.374.319A16.407,16.407,0,0,0,12.046,16.512h0a16.1,16.1,0,0,0-7.655,2.2C1.558,20.377,0,22.6,0,24.979c0,2.869,1.619,4.069,2.919,5.034,1.06.786,1.9,1.407,1.9,2.768s-.837,1.981-1.9,2.767C1.621,36.511,0,37.711,0,40.58c0,2.376,1.56,4.6,4.391,6.268a16.112,16.112,0,0,0,7.659,2.2h0a16.361,16.361,0,0,0,11.594-4.76,16.084,16.084,0,0,0,4.8-11.329c1.038-1.181,2.044-2.355,2.962-3.462,1.571-1.893,2.779-3.455,3.59-4.642C36.082,23.287,36.553,22.323,35.965,21.73ZM22.712,43.343a15.031,15.031,0,0,1-10.653,4.373h0c-4.313,0-10.712-3-10.713-7.136,0-2.2,1.154-3.052,2.376-3.958,1.143-.847,2.438-1.807,2.437-3.842s-1.3-2.995-2.439-3.842c-1.223-.907-2.378-1.764-2.379-3.96,0-2.541,2.336-4.294,3.729-5.113a14.906,14.906,0,0,1,6.977-2.016h0A15.069,15.069,0,0,1,26.314,27.966c-2.9,2.532-6.041,5.452-8.379,7.8-3.884.5-4.414,3.092-4.8,4.993-.329,1.619-.543,2.4-1.793,2.5a.669.669,0,0,0-.2,1.284,12.244,12.244,0,0,0,4.226.814h0a6.841,6.841,0,0,0,3.968-1.121,6.907,6.907,0,0,0,2.678-4.32c1.528-1.546,3.274-3.41,5-5.331A14.758,14.758,0,0,1,22.712,43.343Zm-2.043-3.552a5.032,5.032,0,0,1-5.3,4.231h0a10.028,10.028,0,0,1-2.049-.227,5.383,5.383,0,0,0,1.129-2.77c.367-1.806.715-3.515,3.557-3.921ZM29.9,29.231c-2.65,3.158-5.859,6.7-8.5,9.4l-.409-.412-1.8-1.818c2.394-2.384,5.466-5.226,8.332-7.713h0c.334-.29.666-.576.993-.855a51.388,51.388,0,0,1,5.958-4.608A51.514,51.514,0,0,1,29.9,29.231Z" transform="translate(0)"/></g></svg>