<svg xmlns="http://www.w3.org/2000/svg" viewBox="0 0 34.59 32.1"><defs><style>.a{fill:#f9a495;}</style></defs><g transform="translate(0 -0.973)"><path class="a" d="M32.926,11.737a1.631,1.631,0,0,0,.059-1.711,18.124,18.124,0,0,0-31.382,0,1.633,1.633,0,0,0,.06,1.712,17.2,17.2,0,0,0,.656,16,.826.826,0,0,0,.714.411.706.706,0,0,0,.095-.027,5.662,5.662,0,0,0,.1.624,5.824,5.824,0,0,0,7.134,4.119c3.108-.829.092-12.082-3.016-11.252a5.807,5.807,0,0,0-4.123,4.243,15.407,15.407,0,0,1-.095-13.378,1.632,1.632,0,0,0,1.326-.808,14.831,14.831,0,0,1,25.681,0,1.613,1.613,0,0,0,1.313.788,15.4,15.4,0,0,1-.084,13.4,5.8,5.8,0,0,0-4.126-4.245c-3.108-.83-6.123,10.42-3.013,11.252a5.824,5.824,0,0,0,7.134-4.119,5.707,5.707,0,0,0,.1-.613.83.83,0,0,0,.812-.4,17.2,17.2,0,0,0,.654-16Z"/></g></svg>