<svg xmlns="http://www.w3.org/2000/svg" viewBox="0 0 33.019 32"><defs><style>.a{fill:#ffbd2f;}</style></defs><g transform="translate(0 -0.864)"><path class="a" d="M44.7,31.061l-1.68-1.68a1.763,1.763,0,0,0-2.489,0l-9.074,9.075L30.21,43.042l-.306.306a.588.588,0,0,0,0,.828l0,.012.011,0a.587.587,0,0,0,.829,0l.307-.307,4.586-1.251,9.074-9.075A1.762,1.762,0,0,0,44.7,31.061Zm-11.882,7.7,6.04-6.039,2.5,2.5-6.04,6.04ZM32.29,39.9l1.9,1.9-2.611.712Zm11.581-7.181L42.2,34.39l-2.5-2.5,1.674-1.674a.582.582,0,0,1,.822,0l1.68,1.68A.581.581,0,0,1,43.871,32.716Z" transform="translate(-12.201 -11.491)"/><path class="a" d="M26.59,12.865a.59.59,0,0,0,0,1.179H37.2a.59.59,0,1,0,0-1.179Z" transform="translate(-10.67 -4.925)"/><path class="a" d="M37.793,27.455a.589.589,0,0,0-.59-.59H26.59a.59.59,0,1,0,0,1.179H37.2A.59.59,0,0,0,37.793,27.455Z" transform="translate(-10.67 -10.67)"/><path class="a" d="M15.212,8.007a.588.588,0,0,0-.831.064l-3.684,4.3-2.254-1.69a.589.589,0,1,0-.708.943l2.7,2.022a.59.59,0,0,0,.8-.088l4.043-4.717A.589.589,0,0,0,15.212,8.007Z" transform="translate(-3.078 -2.873)"/><path class="a" d="M15.212,22.007a.588.588,0,0,0-.831.064l-3.684,4.3-2.254-1.69a.589.589,0,1,0-.708.943l2.7,2.022a.59.59,0,0,0,.8-.088l4.043-4.717A.589.589,0,0,0,15.212,22.007Z" transform="translate(-3.078 -8.618)"/><path class="a" d="M14.38,37.071l-3.684,4.3-2.253-1.69a.589.589,0,1,0-.708.943l2.7,2.022a.59.59,0,0,0,.8-.088l4.043-4.716a.589.589,0,1,0-.9-.767Z" transform="translate(-3.078 -14.773)"/><path class="a" d="M14.741,31.526H7.179a6.007,6.007,0,0,1-6-6V8.043a6.006,6.006,0,0,1,6-6H24.661a6.006,6.006,0,0,1,6,6v6.972a.59.59,0,0,0,1.179,0V8.043A7.187,7.187,0,0,0,24.661.864H7.179A7.188,7.188,0,0,0,0,8.043V25.525A7.187,7.187,0,0,0,7.179,32.7h7.561a.589.589,0,1,0,0-1.179Z"/></g></svg>