<svg xmlns="http://www.w3.org/2000/svg" viewBox="0 0 34.747 32.153"><defs><style>.a{fill:#61bec8;}</style></defs><g transform="translate(0 -19.114)"><g transform="translate(11.513 45.155)"><path class="a" d="M172.712,402.828a3.056,3.056,0,1,0,3.056,3.056A3.059,3.059,0,0,0,172.712,402.828Zm0,4.405a1.35,1.35,0,1,1,1.35-1.35A1.351,1.351,0,0,1,172.712,407.233Z" transform="translate(-169.656 -402.828)"/></g><g transform="translate(22.232 45.155)"><path class="a" d="M330.657,402.828a3.056,3.056,0,1,0,3.056,3.056A3.059,3.059,0,0,0,330.657,402.828Zm0,4.405a1.35,1.35,0,1,1,1.35-1.35A1.351,1.351,0,0,1,330.657,407.233Z" transform="translate(-327.601 -402.828)"/></g><g transform="translate(12.962 29.066)"><path class="a" d="M204.075,165.755H191.849a.853.853,0,0,0,0,1.706h12.226a.853.853,0,0,0,0-1.706Z" transform="translate(-190.996 -165.755)"/></g><g transform="translate(13.627 33.496)"><path class="a" d="M212.55,231.035H201.655a.853.853,0,1,0,0,1.706H212.55a.853.853,0,0,0,0-1.706Z" transform="translate(-200.802 -231.035)"/></g><g transform="translate(0 19.114)"><g transform="translate(0)"><path class="a" d="M34.363,25.265a1.7,1.7,0,0,0-1.323-.628H6.466l-.537-2.605a1.708,1.708,0,0,0-.992-1.221L1.193,19.185A.853.853,0,0,0,.513,20.75l3.745,1.625L8.386,42.413a1.713,1.713,0,0,0,1.671,1.362H30.5a.853.853,0,1,0,0-1.706H10.057l-.5-2.437h21.1a1.713,1.713,0,0,0,1.671-1.362l2.386-11.583A1.7,1.7,0,0,0,34.363,25.265ZM30.654,37.925H9.2L6.817,26.343H33.04Z" transform="translate(0 -19.114)"/></g></g></g></svg>