<svg xmlns="http://www.w3.org/2000/svg" viewBox="0 0 35.07 32.541"><defs><style>.a{fill:#ffb6b6;}</style></defs><g transform="translate(0 -17.098)"><g transform="translate(7.589 21.24)"><g transform="translate(0 0)"><path class="a" d="M129.93,81.556a2.149,2.149,0,0,0-2.791-1.2q-.085.034-.167.075l-1.594.8-3.254-4.338a.592.592,0,0,0-.145-.137l-3.55-2.367a.591.591,0,0,0-.237-.092L110.5,73.108a.592.592,0,0,0-.508.166l-4.411,4.394a1.893,1.893,0,0,0-.005,2.677l.005.005a1.9,1.9,0,0,0,2.586.085l3.574-3.127,3.171.906-2.654,5.832-4.072,5.816-4.84,4.355a2.1,2.1,0,1,0,2.742,3.192l5.332-4.366,3.187-3.187,4.042,3.032-.9,6.276a2.044,2.044,0,0,0,.479,1.629,2.066,2.066,0,0,0,1.585.706,2.089,2.089,0,0,0,2.055-1.7l1.547-8.25a.592.592,0,0,0-.192-.554L118.8,87.123l1.886-5.186,3.482,3.98a.592.592,0,0,0,.684.151l3.995-1.767A2.106,2.106,0,0,0,129.93,81.556Zm-1.566,1.661-3.6,1.59L120.912,80.4a.592.592,0,0,0-1,.188L117.545,87.1a.592.592,0,0,0,.166.647l4.479,3.92L120.7,99.583a.916.916,0,0,1-.927.734.863.863,0,0,1-.854-.984l.947-6.623a.592.592,0,0,0-.231-.557l-4.733-3.55a.592.592,0,0,0-.773.055l-3.506,3.51-5.288,4.327a.919.919,0,0,1-1.2-1.4l4.889-4.4a.574.574,0,0,0,.089-.1l4.142-5.916a.571.571,0,0,0,.054-.094l2.958-6.508a.592.592,0,0,0-.376-.814l-4.142-1.183a.588.588,0,0,0-.553.124l-3.816,3.339a.711.711,0,0,1-.971-1.039l4.2-4.184,7.266,1.118,3.354,2.238,3.491,4.652a.592.592,0,0,0,.738.175l2.036-1.021a.956.956,0,0,1,.769-.04.994.994,0,0,1,.574.592A.918.918,0,0,1,128.364,83.218Z" transform="translate(-102.616 -73.101)"/></g></g><g transform="translate(3.55 20.648)"><g transform="translate(0 0)"><rect class="a" width="7.691" height="1.183"/></g></g><g transform="translate(1.183 20.648)"><g transform="translate(0 0)"><rect class="a" width="1.183" height="1.183"/></g></g><g transform="translate(5.916 25.381)"><rect class="a" width="1.183" height="1.183"/></g><g transform="translate(0 25.381)"><rect class="a" width="4.733" height="1.183"/></g><g transform="translate(2.958 30.114)"><rect class="a" width="5.916" height="1.183"/></g><g transform="translate(1.183 34.847)"><g transform="translate(0 0)"><rect class="a" width="10.058" height="1.183"/></g></g><g transform="translate(2.367 39.58)"><g transform="translate(0 0)"><rect class="a" width="4.733" height="1.183"/></g></g><g transform="translate(0 39.58)"><g transform="translate(0 0)"><rect class="a" width="1.183" height="1.183"/></g></g><g transform="translate(1.183 44.314)"><rect class="a" width="4.142" height="1.183"/></g><g transform="translate(23.666 17.098)"><g transform="translate(0 0)"><path class="a" d="M325.916,17.1h-2.662a3.254,3.254,0,1,0,3.254,3.254V17.69A.592.592,0,0,0,325.916,17.1Zm-.592,3.254a2.062,2.062,0,0,1-3.689,1.276,5.421,5.421,0,0,1,3.689-1.564Zm0-1.472a6.593,6.593,0,0,0-4.133,1.554c0-.028-.008-.054-.008-.082a2.071,2.071,0,0,1,2.071-2.071h2.071Z" transform="translate(-320 -17.098)"/></g></g></g></svg>