<svg xmlns="http://www.w3.org/2000/svg" viewBox="0 0 26.569 32.715"><defs><style>.a{fill:#afaade;}</style></defs><path class="a" d="M25.065,0H2.528a1.506,1.506,0,0,0-1.5,1.5v.545H.479a.479.479,0,1,0,0,.958h.545V5.122H.479a.479.479,0,0,0,0,.958h.545V8.2H.479a.479.479,0,0,0,0,.958h.545v2.115H.479a.479.479,0,1,0,0,.958h.545v2.115H.479a.479.479,0,1,0,0,.958h.545v2.115H.479a.479.479,0,1,0,0,.958h.545v2.115H.479a.479.479,0,0,0,0,.958h.545v2.115H.479a.479.479,0,0,0,0,.958h.545v2.115H.479a.479.479,0,0,0,0,.958h.545v2.115H.479a.479.479,0,0,0,0,.958h.545v.545a1.505,1.505,0,0,0,1.5,1.5H25.065a1.505,1.505,0,0,0,1.5-1.5V1.5A1.505,1.505,0,0,0,25.065,0Zm.545,31.212a.546.546,0,0,1-.545.545H5.056V3.552a.479.479,0,1,0-.958,0v28.2H2.528a.546.546,0,0,1-.545-.545v-.545h.545a.479.479,0,1,0,0-.958H1.983V27.593h.545a.479.479,0,1,0,0-.958H1.983V24.52h.545a.479.479,0,1,0,0-.958H1.983V21.447h.545a.479.479,0,1,0,0-.958H1.983V18.373h.545a.479.479,0,1,0,0-.958H1.983V15.3h.545a.479.479,0,1,0,0-.958H1.983V12.227h.545a.479.479,0,1,0,0-.958H1.983V9.154h.545a.479.479,0,0,0,0-.958H1.983V6.08h.545a.479.479,0,1,0,0-.958H1.983V3.007h.545a.479.479,0,1,0,0-.958H1.983V1.5A.546.546,0,0,1,2.528.958H4.1V1.5a.479.479,0,0,0,.958,0V.958H25.065a.546.546,0,0,1,.545.545Zm0,0"/><path class="a" d="M217.937,88.18a1.505,1.505,0,0,0-1.5,1.5v16.9a.481.481,0,0,0,.025.152l1.024,3.073a.479.479,0,0,0,.909,0l1.024-3.073a.475.475,0,0,0,.025-.152V105.05a.479.479,0,0,0-.958,0v.545h-1.09V91.187h1.09V103a.479.479,0,0,0,.958,0V89.683A1.505,1.505,0,0,0,217.937,88.18Zm0,19.964-.53-1.591h1.061Zm-.545-17.915v-.545a.545.545,0,0,1,1.09,0v.545Zm0,0" transform="translate(-202.604 -82.545)"/><path class="a" d="M132.29,248.979a.479.479,0,0,0-.479-.479h-3.073a.479.479,0,1,0,0,.958h3.073A.479.479,0,0,0,132.29,248.979Zm0,0" transform="translate(-120.062 -232.622)"/><path class="a" d="M292.134,248.5h-3.073a.479.479,0,1,0,0,.958h3.073a.479.479,0,1,0,0-.958Zm0,0" transform="translate(-270.142 -232.622)"/><path class="a" d="M162.488,200.938l-1.537-.512a.479.479,0,1,0-.3.909l1.537.512a.479.479,0,1,0,.3-.909Zm0,0" transform="translate(-150.077 -187.596)"/><path class="a" d="M281.042,201.872a.482.482,0,0,0,.152-.025l1.537-.512a.479.479,0,0,0-.3-.909l-1.537.512a.479.479,0,0,0,.151.934Zm0,0" transform="translate(-262.635 -187.596)"/><path class="a" d="M282.73,289.115l-1.537-.512a.479.479,0,1,0-.3.909l1.537.512a.479.479,0,0,0,.3-.909Zm0,0" transform="translate(-262.635 -270.139)"/><path class="a" d="M162.185,288.6l-1.537.512a.479.479,0,1,0,.3.909l1.537-.512a.479.479,0,1,0-.3-.909Zm0,0" transform="translate(-150.077 -270.139)"/></svg>