<svg xmlns="http://www.w3.org/2000/svg" viewBox="0 0 32 32"><defs><style>.a{fill:#72d390;}</style></defs><g transform="translate(0.001 -0.501)"><path class="a" d="M238.469,254.391a.625.625,0,1,0,.884,0A.624.624,0,0,0,238.469,254.391Zm0,0" transform="translate(-223.394 -237.851)"/><path class="a" d="M25.013,2.329c-1.073.83-1.365,1.258-5.168,5.023l-2.28-.371,1.046-1.046a1.875,1.875,0,1,0-2.652-2.652L13,6.238,2.667,4.555A2.109,2.109,0,0,0,1.092,8.344l10.3,7.459L9.464,17.732a15.683,15.683,0,0,0-2.071,2.7l-4.8-1.413a2.02,2.02,0,0,0-1.719,3.6L4.807,25.35c-.686,1.513-1.1,2.607-1.122,2.657a.625.625,0,0,0,.806.806c.051-.019,1.145-.436,2.657-1.122L9.876,31.63a2.02,2.02,0,0,0,3.6-1.72l-1.412-4.8a15.693,15.693,0,0,0,2.7-2.071L16.7,21.107l7.459,10.3a2.109,2.109,0,0,0,3.79-1.576L26.262,19.5l2.955-2.955a1.875,1.875,0,1,0-2.651-2.652l-1.047,1.046-.371-2.28c3.768-3.808,4.189-4.093,5.02-5.166l0,0c1.928-2.5,2.379-5.021,1.122-6.279S27.512.4,25.013,2.329Zm-8.17,1.837a.625.625,0,0,1,.884.884L16.044,6.733l-1.52-.248ZM1.825,7.332a.859.859,0,0,1,.642-1.543L18.756,8.441l-6.468,6.468Zm-.35,13.087a.77.77,0,0,1,.762-.195l4.493,1.321c-.459.8-.923,1.694-1.385,2.656L1.581,21.6A.77.77,0,0,1,1.474,20.418ZM12.081,31.025a.771.771,0,0,1-1.178-.106L8.3,27.156c.963-.463,1.852-.927,2.656-1.385l1.321,4.493A.77.77,0,0,1,12.081,31.025ZM27.45,14.772a.625.625,0,1,1,.884.884l-2.319,2.319-.247-1.52Zm-.739,15.26a.859.859,0,0,1-1.543.642L17.591,20.212l6.468-6.468ZM13.883,22.152a15.74,15.74,0,0,1-2.992,2.208,46.31,46.31,0,0,1-5.483,2.731A45.717,45.717,0,0,1,8.2,21.508a15.473,15.473,0,0,1,2.147-2.891C25.615,3.386,24.71,4.171,25.637,3.43A3.246,3.246,0,0,1,28.2,4.3a3.246,3.246,0,0,1,.87,2.562C28.326,7.791,29.1,6.9,13.883,22.152ZM30.139,5.22A4.125,4.125,0,0,0,27.28,2.361c.9-.459,2.428-.972,3.13-.271C30.964,2.644,30.826,3.865,30.139,5.22Zm0,0" transform="translate(0 0)"/><path class="a" d="M268.529,197.824l-1.768,1.767a.625.625,0,0,0,.884.884l1.767-1.768a.625.625,0,0,0-.884-.884Zm0,0" transform="translate(-249.918 -184.819)"/><path class="a" d="M325.091,141.253l-1.768,1.768a.625.625,0,0,0,.884.884l1.768-1.768a.625.625,0,0,0-.884-.884Zm0,0" transform="translate(-302.944 -131.784)"/></g></svg>