<svg xmlns="http://www.w3.org/2000/svg" viewBox="0 0 35.556 32"><defs><style>.a{fill:#fdc185;}</style></defs><path class="a" d="M33.778,5.333h-7.7V2.963A2.966,2.966,0,0,0,23.111,0H12.444A2.966,2.966,0,0,0,9.481,2.963v2.37h-7.7A1.778,1.778,0,0,0,0,7.111V20.3a1.786,1.786,0,0,0,1.185,1.673v8.247A1.778,1.778,0,0,0,2.963,32h29.63a1.778,1.778,0,0,0,1.778-1.778V21.976A1.786,1.786,0,0,0,35.556,20.3V7.111A1.778,1.778,0,0,0,33.778,5.333ZM10.667,2.963a1.778,1.778,0,0,1,1.778-1.778H23.111a1.778,1.778,0,0,1,1.778,1.778v2.37H23.7V2.963a.593.593,0,0,0-.593-.593H12.444a.593.593,0,0,0-.593.593v2.37H10.667Zm11.852,2.37H13.037V3.556h9.481ZM33.185,30.222a.593.593,0,0,1-.593.593H2.963a.593.593,0,0,1-.593-.593V22.179l13.037,1.8v1.5a1.778,1.778,0,0,0,1.778,1.778H18.37a1.778,1.778,0,0,0,1.778-1.778v-1.5l13.037-1.8ZM18.963,25.481a.593.593,0,0,1-.593.593H17.185a.593.593,0,0,1-.593-.593V21.926a.593.593,0,0,1,.593-.593H18.37a.593.593,0,0,1,.593.593ZM34.37,20.3a.593.593,0,0,1-.51.587l-.164.023L20.148,22.78v-.854a1.778,1.778,0,0,0-1.778-1.778H17.185a1.778,1.778,0,0,0-1.778,1.778v.854L1.7,20.889a.593.593,0,0,1-.51-.587V7.111a.593.593,0,0,1,.593-.593h32a.593.593,0,0,1,.593.593Zm0,0"/></svg>