<svg xmlns="http://www.w3.org/2000/svg" viewBox="0 0 22 22"><defs><style>.a{fill:#838389;}.b{fill:#ffbd2f;}</style></defs><path class="a" d="M19.422,1.719H18.391V0H16.672V1.719H5.328V0H3.609V1.719H2.578A2.581,2.581,0,0,0,0,4.3V19.422A2.581,2.581,0,0,0,2.578,22H19.422A2.581,2.581,0,0,0,22,19.422V4.3A2.581,2.581,0,0,0,19.422,1.719Zm.859,17.7a.86.86,0,0,1-.859.859H2.578a.86.86,0,0,1-.859-.859V8.078H20.281Zm0-13.063H1.719V4.3a.86.86,0,0,1,.859-.859H3.609V5.156H5.328V3.438H16.672V5.156h1.719V3.438h1.031a.86.86,0,0,1,.859.859Z"/><g transform="translate(3.266 9.883)"><rect class="b" width="1.719" height="1.719"/></g><g transform="translate(6.703 9.883)"><rect class="b" width="1.719" height="1.719"/></g><g transform="translate(10.141 9.883)"><rect class="b" width="1.719" height="1.719"/></g><g transform="translate(13.578 9.883)"><rect class="b" width="1.719" height="1.719"/></g><g transform="translate(17.016 9.883)"><rect class="b" width="1.719" height="1.719"/></g><g transform="translate(3.266 13.32)"><rect class="b" width="1.719" height="1.719"/></g><g transform="translate(6.703 13.32)"><rect class="b" width="1.719" height="1.719"/></g><g transform="translate(10.141 13.32)"><rect class="b" width="1.719" height="1.719"/></g><g transform="translate(13.578 13.32)"><rect class="b" width="1.719" height="1.719"/></g><g transform="translate(3.266 16.758)"><rect class="b" width="1.719" height="1.719"/></g><g transform="translate(6.703 16.758)"><rect class="b" width="1.719" height="1.719"/></g><g transform="translate(10.141 16.758)"><rect class="b" width="1.719" height="1.719"/></g><g transform="translate(13.578 16.758)"><rect class="b" width="1.719" height="1.719"/></g><g transform="translate(17.016 13.32)"><rect class="b" width="1.719" height="1.719"/></g></svg>