<svg xmlns="http://www.w3.org/2000/svg" viewBox="0 0 25.377 22.799"><defs><style>.a{fill:#ffbd2f;}.b{fill:#838389;}</style></defs><g transform="translate(0 -16.512)"><path class="a" d="M45.417,205.689a2.073,2.073,0,0,0-1.28-.444,2.052,2.052,0,0,0-1.607.767,2.034,2.034,0,0,0,.326,2.874,2.072,2.072,0,0,0,1.28.445,2.051,2.051,0,0,0,1.607-.768,2.033,2.033,0,0,0-.326-2.873Zm-.4,2.286a1.128,1.128,0,0,1-1.576.175,1.1,1.1,0,0,1-.177-1.551,1.129,1.129,0,0,1,1.576-.175,1.1,1.1,0,0,1,.177,1.551Z" transform="translate(-38.794 -173.998)"/><path class="a" d="M166,101.242a2.054,2.054,0,0,0,1.939-1.372,2.016,2.016,0,0,0-.091-1.557,2.063,2.063,0,0,0-2.743-.954,2.035,2.035,0,0,0-.96,2.728A2.073,2.073,0,0,0,166,101.242Zm-1.061-2.4a1.1,1.1,0,0,1,.57-.633,1.126,1.126,0,0,1,1.5.518,1.086,1.086,0,0,1,.049.839,1.1,1.1,0,0,1-.57.634,1.119,1.119,0,0,1-.485.11,1.131,1.131,0,0,1-1.012-.629A1.085,1.085,0,0,1,164.937,98.838Z" transform="translate(-151.139 -74.349)"/><path class="a" d="M106.134,59.454a2.083,2.083,0,0,0,.458.051,2.043,2.043,0,0,0,2-1.587,2.021,2.021,0,0,0-.262-1.537,2.043,2.043,0,0,0-1.286-.909,2.082,2.082,0,0,0-.46-.052,2.041,2.041,0,0,0-2,1.588,2.016,2.016,0,0,0,.26,1.537A2.04,2.04,0,0,0,106.134,59.454Zm-.635-2.236a1.109,1.109,0,0,1,1.089-.861,1.144,1.144,0,0,1,.253.029,1.112,1.112,0,0,1,.7.494,1.089,1.089,0,0,1,.142.828,1.124,1.124,0,0,1-1.091.86,1.146,1.146,0,0,1-.252-.028,1.109,1.109,0,0,1-.7-.494A1.086,1.086,0,0,1,105.5,57.219Z" transform="translate(-96.372 -35.871)"/><path class="a" d="M37.947,79.065a2.035,2.035,0,0,0,.326-2.874,2.068,2.068,0,0,0-2.887-.323,2.034,2.034,0,0,0-.326,2.874,2.066,2.066,0,0,0,2.887.323Zm-2.157-.91a1.1,1.1,0,0,1,.176-1.551,1.131,1.131,0,0,1,1.577.175,1.1,1.1,0,0,1-.178,1.552,1.129,1.129,0,0,1-1.575-.176Z" transform="translate(-31.908 -54.313)"/><path class="b" d="M25.2,20.168a.619.619,0,0,0-.453-.179c-.267,0-.977,0-5.289,3.669l-.262.224A11.5,11.5,0,0,0,8.44,16.512h0a11.28,11.28,0,0,0-5.363,1.542C1.092,19.22,0,20.779,0,22.444a4.021,4.021,0,0,0,2.045,3.527c.743.551,1.33.986,1.33,1.94S2.789,29.3,2.047,29.849A4.016,4.016,0,0,0,0,33.375C0,35.04,1.1,36.6,3.08,37.766a11.288,11.288,0,0,0,5.366,1.545h0a11.463,11.463,0,0,0,8.123-3.335,11.269,11.269,0,0,0,3.365-7.937c.727-.828,1.432-1.65,2.075-2.426,1.1-1.326,1.947-2.42,2.515-3.252C25.28,21.259,25.61,20.583,25.2,20.168ZM15.913,35.31a10.531,10.531,0,0,1-7.464,3.064h0c-3.022,0-7.505-2.1-7.506-5A3.117,3.117,0,0,1,2.6,30.6,3.218,3.218,0,0,0,4.312,27.91,3.222,3.222,0,0,0,2.6,25.218,3.121,3.121,0,0,1,.937,22.444c0-1.78,1.637-3.008,2.613-3.582a10.443,10.443,0,0,1,4.889-1.413h0a10.558,10.558,0,0,1,10,7.088C16.4,26.311,14.2,28.356,12.566,30c-2.722.352-3.092,2.166-3.363,3.5-.231,1.135-.381,1.683-1.256,1.753a.468.468,0,0,0-.142.9,8.578,8.578,0,0,0,2.961.571h0a4.793,4.793,0,0,0,2.78-.786,4.839,4.839,0,0,0,1.877-3.027c1.071-1.083,2.294-2.389,3.5-3.735A10.34,10.34,0,0,1,15.913,35.31Zm-1.431-2.489a3.526,3.526,0,0,1-3.716,2.964h0a7.026,7.026,0,0,1-1.435-.159,3.772,3.772,0,0,0,.791-1.941c.257-1.265.5-2.463,2.492-2.747Zm6.469-7.4c-1.857,2.212-4.1,4.7-5.955,6.586l-.286-.289-1.264-1.274c1.678-1.67,3.83-3.661,5.838-5.4h0c.234-.2.467-.4.7-.6a36,36,0,0,1,4.174-3.229A36.092,36.092,0,0,1,20.95,25.423Z" transform="translate(0)"/></g></svg>