<svg xmlns="http://www.w3.org/2000/svg" viewBox="0 0 25.575 22.798"><defs><style>.a{fill:#ffbd2f;}.b{fill:#838389;}</style></defs><g transform="translate(0.001 -27.797)"><g transform="translate(-0.001 27.798)"><g transform="translate(0 0)"><path class="a" d="M25.3,36.8,13.179,27.926a.664.664,0,0,0-.785,0L.271,36.8a.665.665,0,0,0,.785,1.072l11.73-8.589,11.73,8.589A.664.664,0,0,0,25.3,36.8Z" transform="translate(0.001 -27.798)"/></g></g><g transform="translate(2.819 38.025)"><path class="b" d="M75.723,232.543a.665.665,0,0,0-.664.664v10.577H69.742v-5.774a3.323,3.323,0,1,0-6.645,0v5.774H57.781V233.208a.664.664,0,1,0-1.329,0v11.241a.665.665,0,0,0,.664.665h6.645a.664.664,0,0,0,.662-.613.5.5,0,0,0,0-.052v-6.438a1.994,1.994,0,1,1,3.987,0v6.438a.488.488,0,0,0,0,.051.664.664,0,0,0,.662.613h6.645a.664.664,0,0,0,.664-.665V233.208A.665.665,0,0,0,75.723,232.543Z" transform="translate(-56.452 -232.543)"/></g></g></svg>