<svg xmlns="http://www.w3.org/2000/svg" viewBox="0 0 16.427 23.363"><defs><style>.a{fill:#838389;}.b{fill:#ffbd2f;}</style></defs><g transform="translate(-76)"><g transform="translate(76)"><path class="a" d="M84.213,0a8.215,8.215,0,0,0-6.987,12.532l6.52,10.507a.684.684,0,0,0,.582.324h.005a.684.684,0,0,0,.582-.333l6.354-10.609A8.215,8.215,0,0,0,84.213,0Zm5.88,11.719-5.777,9.645L78.39,11.811a6.849,6.849,0,1,1,11.7-.093Z" transform="translate(-76)"/></g><g transform="translate(80.107 4.107)"><path class="b" d="M170.107,90a4.107,4.107,0,1,0,4.107,4.107A4.111,4.111,0,0,0,170.107,90Zm0,6.854a2.747,2.747,0,1,1,2.742-2.747A2.749,2.749,0,0,1,170.107,96.854Z" transform="translate(-166 -90)"/></g></g></svg>