<svg xmlns="http://www.w3.org/2000/svg" viewBox="0 0 24.567 22.799"><defs><style>.a{fill:#838389;}.b{fill:#ffbd2f;stroke:#ffbd2f;}.c{stroke:none;}.d{fill:none;}</style></defs><g transform="translate(-33 -1248)"><g transform="translate(33 1248)"><path class="a" d="M23.386,8.618A1.158,1.158,0,0,0,23.427,7.4a12.872,12.872,0,0,0-22.289,0,1.16,1.16,0,0,0,.043,1.216,12.219,12.219,0,0,0,.466,11.367.587.587,0,0,0,.507.292.5.5,0,0,0,.067-.019,4.021,4.021,0,0,0,.073.443A4.137,4.137,0,0,0,7.36,23.629c2.207-.589.065-8.581-2.142-7.991A4.125,4.125,0,0,0,2.29,18.652a10.943,10.943,0,0,1-.067-9.5,1.159,1.159,0,0,0,.942-.574,10.533,10.533,0,0,1,18.24,0,1.146,1.146,0,0,0,.933.56,10.941,10.941,0,0,1-.06,9.52,4.119,4.119,0,0,0-2.93-3.015c-2.207-.589-4.349,7.4-2.14,7.991A4.137,4.137,0,0,0,22.274,20.7a4.054,4.054,0,0,0,.071-.435.589.589,0,0,0,.577-.285,12.216,12.216,0,0,0,.464-11.366Z" transform="translate(0 -0.973)"/></g><g class="b" transform="translate(37.568 1265.436)"><rect class="c" width="2.024" height="3.036" rx="1.012"/><rect class="d" x="0.5" y="0.5" width="1.024" height="2.036" rx="0.512"/></g><g class="b" transform="translate(51.062 1265.436)"><rect class="c" width="2.024" height="3.036" rx="1.012"/><rect class="d" x="0.5" y="0.5" width="1.024" height="2.036" rx="0.512"/></g></g></svg>