<svg xmlns="http://www.w3.org/2000/svg" viewBox="0 0 23.525 22.799"><defs><style>.a{fill:#838389;}.b{fill:#ffbd2f;}</style></defs><g transform="translate(0 -0.864)"><path class="a" d="M40.4,30.429l-1.2-1.2a1.256,1.256,0,0,0-1.773,0L30.964,35.7l-.891,3.268-.218.218a.419.419,0,0,0,0,.59l0,.008.008,0a.418.418,0,0,0,.591,0l.218-.218,3.267-.891L40.4,32.2A1.255,1.255,0,0,0,40.4,30.429Zm-8.466,5.487,4.3-4.3L38.019,33.4l-4.3,4.3Zm-.379.809,1.353,1.353-1.86.507Zm8.251-5.116L38.613,32.8,36.83,31.02l1.193-1.193a.415.415,0,0,1,.586,0l1.2,1.2A.414.414,0,0,1,39.805,31.609Z" transform="translate(-17.242 -16.238)"/><path class="a" d="M26.42,12.865a.42.42,0,1,0,0,.84h7.562a.42.42,0,0,0,0-.84Z" transform="translate(-15.078 -6.959)"/><path class="a" d="M34.4,27.285a.42.42,0,0,0-.42-.42H26.42a.42.42,0,1,0,0,.84h7.562A.42.42,0,0,0,34.4,27.285Z" transform="translate(-15.078 -15.078)"/><path class="b" d="M12.995,7.966a.419.419,0,0,0-.592.045L9.778,11.073l-1.606-1.2a.42.42,0,1,0-.5.672l1.92,1.441a.42.42,0,0,0,.571-.063L13.04,8.557A.419.419,0,0,0,12.995,7.966Z" transform="translate(-4.349 -4.059)"/><path class="b" d="M12.995,21.966a.419.419,0,0,0-.592.045L9.778,25.073l-1.606-1.2a.42.42,0,1,0-.5.672l1.92,1.441a.42.42,0,0,0,.571-.063l2.881-3.361A.419.419,0,0,0,12.995,21.966Z" transform="translate(-4.349 -12.178)"/><path class="b" d="M12.4,37.011,9.777,40.072l-1.605-1.2a.42.42,0,1,0-.5.672l1.92,1.441a.42.42,0,0,0,.571-.063l2.881-3.36a.42.42,0,1,0-.638-.546Z" transform="translate(-4.349 -20.877)"/><path class="a" d="M10.5,22.709H5.115A4.28,4.28,0,0,1,.84,18.434V5.979A4.279,4.279,0,0,1,5.115,1.7H17.57a4.279,4.279,0,0,1,4.275,4.274v4.967a.42.42,0,0,0,.84,0V5.979A5.121,5.121,0,0,0,17.57.864H5.115A5.121,5.121,0,0,0,0,5.979V18.434a5.121,5.121,0,0,0,5.115,5.115H10.5a.42.42,0,1,0,0-.84Z" transform="translate(0 0)"/></g></svg>