<svg xmlns="http://www.w3.org/2000/svg" viewBox="0 0 24.39 22.569"><defs><style>.a{fill:#838389;}.b{fill:#ffbd2f;}</style></defs><g transform="translate(0 -19.114)"><g transform="translate(8.081 37.393)"><path class="a" d="M171.8,402.828a2.145,2.145,0,1,0,2.145,2.145A2.147,2.147,0,0,0,171.8,402.828Zm0,3.092a.947.947,0,1,1,.947-.947A.948.948,0,0,1,171.8,405.92Z" transform="translate(-169.656 -402.828)"/></g><g transform="translate(15.605 37.393)"><path class="a" d="M329.746,402.828a2.145,2.145,0,1,0,2.145,2.145A2.147,2.147,0,0,0,329.746,402.828Zm0,3.092a.947.947,0,1,1,.947-.947A.948.948,0,0,1,329.746,405.92Z" transform="translate(-327.601 -402.828)"/></g><g transform="translate(9.098 26.099)"><path class="b" d="M200.177,165.755h-8.582a.6.6,0,0,0,0,1.2h8.582a.6.6,0,0,0,0-1.2Z" transform="translate(-190.996 -165.755)"/></g><g transform="translate(9.565 29.209)"><path class="b" d="M209.048,231.035H201.4a.6.6,0,1,0,0,1.2h7.647a.6.6,0,0,0,0-1.2Z" transform="translate(-200.802 -231.035)"/></g><g transform="translate(0 19.114)"><g transform="translate(0)"><path class="a" d="M24.12,23.431a1.193,1.193,0,0,0-.928-.441H4.538l-.377-1.829a1.2,1.2,0,0,0-.7-.857L.837,19.164a.6.6,0,0,0-.477,1.1L2.989,21.4l2.9,14.065a1.2,1.2,0,0,0,1.173.956H21.406a.6.6,0,1,0,0-1.2H7.059l-.352-1.711h14.81a1.2,1.2,0,0,0,1.173-.956l1.675-8.13A1.193,1.193,0,0,0,24.12,23.431Zm-2.6,8.887H6.46l-1.675-8.13H23.192Z" transform="translate(0 -19.114)"/></g></g></g></svg>