<svg xmlns="http://www.w3.org/2000/svg" viewBox="0 0 24.679 22.897"><defs><style>.a{fill:#838389;}.b{fill:#ffbd2f;}</style></defs><g transform="translate(0 -17.1)"><g transform="translate(5.338 20.013)"><g transform="translate(0 0)"><path class="a" d="M121.836,79.051a1.512,1.512,0,0,0-1.964-.844q-.06.024-.118.053l-1.122.563-2.29-3.053a.416.416,0,0,0-.1-.1l-2.5-1.666a.416.416,0,0,0-.167-.065l-5.413-.837a.417.417,0,0,0-.357.117l-3.1,3.092a1.332,1.332,0,0,0,0,1.884l0,0a1.337,1.337,0,0,0,1.82.06l2.515-2.2,2.231.638L109.4,80.8,106.535,84.9l-3.406,3.065a1.481,1.481,0,0,0,1.93,2.246l3.752-3.072,2.243-2.243,2.844,2.134-.633,4.416a1.438,1.438,0,0,0,.337,1.146,1.454,1.454,0,0,0,1.115.5,1.47,1.47,0,0,0,1.446-1.2l1.089-5.805a.417.417,0,0,0-.135-.39L114,82.968l1.327-3.649,2.45,2.8a.417.417,0,0,0,.481.106l2.811-1.243A1.482,1.482,0,0,0,121.836,79.051Zm-1.1,1.169L118.2,81.338l-2.711-3.1a.417.417,0,0,0-.7.132l-1.666,4.582a.417.417,0,0,0,.117.455l3.152,2.758-1.049,5.57a.645.645,0,0,1-.652.517.607.607,0,0,1-.6-.692l.666-4.661a.417.417,0,0,0-.163-.392l-3.331-2.5a.417.417,0,0,0-.544.039l-2.467,2.47-3.721,3.045a.649.649,0,0,1-.844-.985l3.44-3.1a.4.4,0,0,0,.063-.07l2.915-4.163a.4.4,0,0,0,.038-.066l2.082-4.58a.417.417,0,0,0-.265-.573l-2.915-.832a.414.414,0,0,0-.389.087l-2.685,2.35a.5.5,0,1,1-.683-.731l2.956-2.944,5.113.787,2.36,1.575,2.457,3.274a.417.417,0,0,0,.519.123L120.122,79a.673.673,0,0,1,.541-.028.7.7,0,0,1,.4.417.646.646,0,0,1-.333.833Z" transform="translate(-102.613 -73.101)"/></g></g><g transform="translate(2.498 19.597)"><rect class="b" width="5.412" height="0.832"/></g><g transform="translate(0.832 19.597)"><rect class="a" width="0.832" height="0.832"/></g><g transform="translate(4.163 22.927)"><rect class="b" width="0.832" height="0.832"/></g><g transform="translate(0 22.927)"><rect class="a" width="3.331" height="0.832"/></g><g transform="translate(2.082 26.258)"><rect class="b" width="4.163" height="0.832"/></g><g transform="translate(0.832 29.588)"><rect class="b" width="7.078" height="0.832"/></g><g transform="translate(1.666 32.919)"><rect class="a" width="3.331" height="0.832"/></g><g transform="translate(0 32.919)"><rect class="b" width="0.832" height="0.832"/></g><g transform="translate(0.832 36.25)"><rect class="b" width="2.915" height="0.832"/></g><g transform="translate(16.654 17.1)"><g transform="translate(0 0)"><path class="a" d="M324.163,17.1H322.29a2.29,2.29,0,1,0,2.29,2.29V17.515a.417.417,0,0,0-.417-.415Zm-.417,2.29a1.451,1.451,0,0,1-2.6.9,3.815,3.815,0,0,1,2.6-1.1Zm0-1.036a4.639,4.639,0,0,0-2.908,1.094c0-.02-.006-.038-.006-.058a1.457,1.457,0,0,1,1.457-1.457h1.457Z" transform="translate(-320 -17.1)"/></g></g></g></svg>