<svg xmlns="http://www.w3.org/2000/svg" viewBox="0 0 18.821 23.175"><defs><style>.a{fill:#838389;}.b{fill:#ffbd2f;}</style></defs><path class="a" d="M17.755,0H1.791A1.066,1.066,0,0,0,.726,1.065v.386H.339a.339.339,0,1,0,0,.679H.726v1.5H.339a.339.339,0,0,0,0,.679H.726v1.5H.339a.339.339,0,0,0,0,.679H.726v1.5H.339a.339.339,0,1,0,0,.679H.726v1.5H.339a.339.339,0,1,0,0,.679H.726v1.5H.339a.339.339,0,1,0,0,.679H.726v1.5H.339a.339.339,0,1,0,0,.679H.726v1.5H.339a.339.339,0,0,0,0,.679H.726v1.5H.339a.339.339,0,0,0,0,.679H.726v1.5H.339a.339.339,0,0,0,0,.679H.726v.386a1.066,1.066,0,0,0,1.065,1.065H17.755a1.066,1.066,0,0,0,1.065-1.065V1.065A1.066,1.066,0,0,0,17.755,0Zm.386,22.109a.387.387,0,0,1-.386.386H3.582V2.516a.339.339,0,1,0-.679,0V22.5H1.791a.387.387,0,0,1-.386-.386v-.386h.386a.339.339,0,0,0,0-.679H1.4v-1.5h.386a.339.339,0,0,0,0-.679H1.4v-1.5h.386a.339.339,0,0,0,0-.679H1.4v-1.5h.386a.339.339,0,1,0,0-.679H1.4v-1.5h.386a.339.339,0,1,0,0-.679H1.4v-1.5h.386a.339.339,0,0,0,0-.679H1.4v-1.5h.386a.339.339,0,1,0,0-.679H1.4v-1.5h.386a.339.339,0,1,0,0-.679H1.4v-1.5h.386a.339.339,0,1,0,0-.679H1.4V2.13h.386a.339.339,0,1,0,0-.679H1.4V1.065A.387.387,0,0,1,1.791.679H2.9v.386a.339.339,0,1,0,.679,0V.679H17.755a.387.387,0,0,1,.386.386Zm0,0"/><path class="a" d="M217.5,88.18a1.066,1.066,0,0,0-1.065,1.065v11.973a.341.341,0,0,0,.018.107l.726,2.177a.339.339,0,0,0,.644,0l.726-2.177a.336.336,0,0,0,.017-.107V100.13a.339.339,0,0,0-.679,0v.386h-.772V90.31h.772v8.369a.339.339,0,0,0,.679,0V89.245A1.066,1.066,0,0,0,217.5,88.18Zm0,14.142-.376-1.127h.751Zm-.386-12.691v-.386a.386.386,0,0,1,.772,0v.386Zm0,0" transform="translate(-206.637 -84.188)"/><path class="b" d="M131.114,248.839a.34.34,0,0,0-.339-.339H128.6a.339.339,0,1,0,0,.679h2.177A.34.34,0,0,0,131.114,248.839Zm0,0" transform="translate(-122.452 -237.252)"/><path class="b" d="M291.1,248.5h-2.177a.339.339,0,1,0,0,.679H291.1a.339.339,0,1,0,0-.679Zm0,0" transform="translate(-275.52 -237.252)"/><path class="b" d="M161.856,200.781l-1.088-.363a.339.339,0,1,0-.215.644l1.088.363a.339.339,0,1,0,.215-.644Zm0,0" transform="translate(-153.064 -191.33)"/><path class="b" d="M280.9,201.443a.341.341,0,0,0,.107-.018l1.088-.363a.339.339,0,0,0-.215-.644l-1.088.363a.34.34,0,0,0,.107.662Zm0,0" transform="translate(-267.864 -191.33)"/><path class="b" d="M282.1,288.959l-1.088-.363a.339.339,0,1,0-.215.644l1.088.363a.339.339,0,0,0,.215-.644Zm0,0" transform="translate(-267.864 -275.516)"/><path class="b" d="M161.642,288.6l-1.088.363a.339.339,0,1,0,.215.644l1.088-.363a.339.339,0,1,0-.215-.644Zm0,0" transform="translate(-153.064 -275.516)"/></svg>