<svg xmlns="http://www.w3.org/2000/svg" viewBox="0 0 19.953 22.803"><defs><style>.a{fill:#838389;}.b{fill:#ffbd2f;}</style></defs><g transform="translate(-2)"><path class="a" d="M11.976,2.85a9.976,9.976,0,1,0,9.976,9.976A9.976,9.976,0,0,0,11.976,2.85Zm0,17.993a8.017,8.017,0,1,1,8.017-8.017A8.017,8.017,0,0,1,11.976,20.843ZM21.391,6.395a4.276,4.276,0,0,0-7.1-4.734,11.409,11.409,0,0,1,7.1,4.734h0ZM9.659,1.661a4.276,4.276,0,0,0-7.1,4.734,11.408,11.408,0,0,1,7.1-4.734Z"/><path class="b" d="M15.425,15.7V10H14v7.126h5.7V15.7Z" transform="translate(-3.449 -2.874)"/></g></svg>