<svg xmlns="http://www.w3.org/2000/svg" viewBox="0 0 22.799 22.799"><defs><style>.a{fill:#ffbd2f;}.b{fill:#838389;}</style></defs><g transform="translate(0.001 -0.501)"><path class="a" d="M238.417,254.339a.445.445,0,1,0,.63,0A.445.445,0,0,0,238.417,254.339Zm0,0" transform="translate(-227.676 -242.41)"/><path class="b" d="M17.821,1.8a50.823,50.823,0,0,0-3.682,3.579l-1.625-.265.746-.746A1.336,1.336,0,1,0,11.37,2.482L9.264,4.588,1.9,3.389a1.5,1.5,0,0,0-1.122,2.7L8.116,11.4,6.743,12.778A11.174,11.174,0,0,0,5.267,14.7L1.844,13.7A1.439,1.439,0,0,0,.619,16.263l2.806,1.942c-.488,1.078-.785,1.857-.8,1.893a.445.445,0,0,0,.574.574c.036-.014.815-.311,1.893-.8L7.036,22.68A1.439,1.439,0,0,0,9.6,21.454L8.594,18.032a11.181,11.181,0,0,0,1.927-1.476L11.9,15.182l5.315,7.339a1.5,1.5,0,0,0,2.7-1.123l-1.2-7.364,2.106-2.106a1.336,1.336,0,0,0-1.889-1.89l-.746.746L17.917,9.16a50.841,50.841,0,0,0,3.577-3.68l0,0C22.87,3.7,23.191,1.9,22.3,1S19.6.429,17.821,1.8ZM12,3.112a.445.445,0,1,1,.63.63l-1.2,1.2-1.083-.176ZM1.3,5.367a.612.612,0,0,1,.457-1.1l11.606,1.89L8.754,10.766Zm-.25,9.324a.549.549,0,0,1,.543-.139l3.2.941c-.327.573-.658,1.207-.987,1.892L1.126,15.531A.549.549,0,0,1,1.05,14.692Zm7.557,7.557a.549.549,0,0,1-.839-.076L5.912,19.492c.686-.33,1.32-.66,1.892-.987l.941,3.2A.549.549,0,0,1,8.607,22.248Zm10.95-11.579a.445.445,0,1,1,.629.63l-1.652,1.652-.176-1.083ZM19.03,21.541a.612.612,0,0,1-1.1.458l-5.4-7.454,4.608-4.608ZM9.891,15.926A11.214,11.214,0,0,1,7.76,17.5a32.995,32.995,0,0,1-3.906,1.946,32.572,32.572,0,0,1,1.989-3.978,11.024,11.024,0,0,1,1.53-2.06C18.25,2.556,17.605,3.116,18.265,2.588a2.312,2.312,0,0,1,1.826.619,2.313,2.313,0,0,1,.62,1.826C20.182,5.695,20.735,5.057,9.891,15.926ZM21.473,3.863a2.939,2.939,0,0,0-2.037-2.037c.644-.327,1.73-.693,2.23-.193C22.061,2.028,21.962,2.9,21.473,3.863Zm0,0" transform="translate(0)"/><path class="a" d="M267.968,197.771l-1.259,1.259a.445.445,0,0,0,.63.63L268.6,198.4a.445.445,0,1,0-.63-.63Zm0,0" transform="translate(-254.708 -188.361)"/><path class="a" d="M324.53,141.2l-1.26,1.26a.445.445,0,1,0,.63.63l1.26-1.26a.445.445,0,1,0-.63-.63Zm0,0" transform="translate(-308.751 -134.31)"/></g></svg>