<svg xmlns="http://www.w3.org/2000/svg" viewBox="0 0 25.332 22.799"><defs><style>.a{fill:#838389;}.b{fill:#ffbd2f;stroke:#ffbd2f;}.c{stroke:none;}.d{fill:none;}</style></defs><g transform="translate(-12.111 -1257)"><path class="a" d="M24.066,3.8H18.577V2.111A2.113,2.113,0,0,0,16.466,0h-7.6A2.113,2.113,0,0,0,6.755,2.111V3.8H1.267A1.267,1.267,0,0,0,0,5.066v9.4a1.272,1.272,0,0,0,.844,1.192v5.876A1.267,1.267,0,0,0,2.111,22.8h21.11a1.267,1.267,0,0,0,1.267-1.267V15.657a1.273,1.273,0,0,0,.844-1.192v-9.4A1.267,1.267,0,0,0,24.066,3.8ZM7.6,2.111A1.267,1.267,0,0,1,8.866.844h7.6a1.267,1.267,0,0,1,1.267,1.267V3.8h-.844V2.111a.422.422,0,0,0-.422-.422h-7.6a.422.422,0,0,0-.422.422V3.8H7.6ZM16.044,3.8H9.288V2.533h6.755Zm7.6,17.733a.422.422,0,0,1-.422.422H2.111a.422.422,0,0,1-.422-.422V15.8l9.288,1.281v1.072a1.267,1.267,0,0,0,1.267,1.267h.844a1.267,1.267,0,0,0,1.267-1.267V17.083L23.643,15.8ZM13.51,18.155a.422.422,0,0,1-.422.422h-.844a.422.422,0,0,1-.422-.422V15.622a.422.422,0,0,1,.422-.422h.844a.422.422,0,0,1,.422.422Zm10.977-3.69a.422.422,0,0,1-.363.418l-.117.016L14.355,16.23v-.609a1.267,1.267,0,0,0-1.267-1.267h-.844a1.267,1.267,0,0,0-1.267,1.267v.609L1.208,14.883a.422.422,0,0,1-.363-.418v-9.4a.422.422,0,0,1,.422-.422h22.8a.422.422,0,0,1,.422.422Zm0,0" transform="translate(12.111 1257)"/><g class="b" transform="translate(23.431 1265.55)"><rect class="c" width="2.85" height="4.275" rx="1.425"/><rect class="d" x="0.5" y="0.5" width="1.85" height="3.275" rx="0.925"/></g></g></svg>