<svg xmlns="http://www.w3.org/2000/svg" viewBox="0 0 50 50"><defs><style>.a,.b{fill:#8bacff;}.a{opacity:0.345;}</style></defs><g transform="translate(7 -299)"><circle class="a" cx="25" cy="25" r="25" transform="translate(-7 299)"/><g transform="translate(-40.173 311)"><g transform="translate(48.173)"><path class="b" d="M67.209,2.16H63.9V.875a.875.875,0,0,0-1.75,0V2.16H59V.875a.875.875,0,1,0-1.75,0V2.16H54.1V.875a.875.875,0,0,0-1.75,0V2.16H49.048a.875.875,0,0,0-.875.875V25.779a.875.875,0,0,0,.875.875H67.209a.875.875,0,0,0,.875-.875V3.035A.875.875,0,0,0,67.209,2.16ZM66.334,24.9H49.923V3.91h2.432V4.931a.875.875,0,0,0,1.75,0V3.91h3.15V4.931a.875.875,0,0,0,1.75,0V3.91h3.15V4.931a.875.875,0,0,0,1.75,0V3.91h2.432Z" transform="translate(-48.173)"/><path class="b" d="M115.149,139.758H104.791a.875.875,0,1,0,0,1.75h10.358a.875.875,0,1,0,0-1.75Z" transform="translate(-100.015 -129.976)"/><path class="b" d="M115.149,209.758H104.791a.875.875,0,1,0,0,1.75h10.358a.875.875,0,1,0,0-1.75Z" transform="translate(-100.015 -195.077)"/><path class="b" d="M115.149,279.758H104.791a.875.875,0,1,0,0,1.75h10.358a.875.875,0,1,0,0-1.75Z" transform="translate(-100.015 -260.178)"/></g></g></g></svg>