<svg xmlns="http://www.w3.org/2000/svg" viewBox="0 0 50 50"><defs><style>.a,.b{fill:#b173c8;}.a{opacity:0.345;}</style></defs><g transform="translate(7 -299)"><circle class="a" cx="25" cy="25" r="25" transform="translate(-7 299)"/><g transform="translate(3 294.488)"><path class="b" d="M45.9,205.754a2.375,2.375,0,0,0-1.467-.509,2.351,2.351,0,0,0-1.841.878,2.33,2.33,0,0,0,.374,3.292,2.374,2.374,0,0,0,1.466.509,2.349,2.349,0,0,0,1.841-.88,2.33,2.33,0,0,0-.374-3.291Zm-.463,2.619a1.293,1.293,0,0,1-1.805.2,1.256,1.256,0,0,1-.2-1.778,1.294,1.294,0,0,1,1.806-.2,1.256,1.256,0,0,1,.2,1.777Z" transform="translate(-38.316 -171.851)"/><path class="b" d="M166.3,101.838a2.354,2.354,0,0,0,2.222-1.572,2.31,2.31,0,0,0-.1-1.784,2.364,2.364,0,0,0-3.143-1.093,2.332,2.332,0,0,0-1.1,3.125A2.375,2.375,0,0,0,166.3,101.838Zm-1.216-2.755a1.261,1.261,0,0,1,.653-.726,1.29,1.29,0,0,1,1.715.593,1.245,1.245,0,0,1,.056.961,1.263,1.263,0,0,1-.653.727,1.282,1.282,0,0,1-.556.126,1.3,1.3,0,0,1-1.16-.721A1.244,1.244,0,0,1,165.083,99.083Z" transform="translate(-149.274 -73.431)"/><path class="b" d="M106.367,60.042a2.387,2.387,0,0,0,.525.059,2.341,2.341,0,0,0,2.3-1.818,2.316,2.316,0,0,0-.3-1.761,2.34,2.34,0,0,0-1.474-1.042,2.385,2.385,0,0,0-.527-.059,2.338,2.338,0,0,0-2.293,1.819,2.31,2.31,0,0,0,.3,1.761A2.337,2.337,0,0,0,106.367,60.042Zm-.728-2.561a1.27,1.27,0,0,1,1.247-.986,1.311,1.311,0,0,1,.29.033,1.274,1.274,0,0,1,.8.566,1.248,1.248,0,0,1,.162.949,1.288,1.288,0,0,1-1.25.985,1.314,1.314,0,0,1-.289-.032,1.271,1.271,0,0,1-.8-.566A1.245,1.245,0,0,1,105.64,57.481Z" transform="translate(-95.183 -35.429)"/><path class="b" d="M38.434,79.6a2.332,2.332,0,0,0,.373-3.292,2.37,2.37,0,0,0-3.308-.37,2.33,2.33,0,0,0-.373,3.293,2.367,2.367,0,0,0,3.308.37Zm-2.471-1.043a1.257,1.257,0,0,1,.2-1.777,1.3,1.3,0,0,1,1.806.2,1.259,1.259,0,0,1-.2,1.778,1.293,1.293,0,0,1-1.8-.2Z" transform="translate(-31.514 -53.643)"/><path class="b" d="M28.87,20.7a.709.709,0,0,0-.519-.205c-.306,0-1.12,0-6.059,4.2l-.3.256A13.17,13.17,0,0,0,9.67,16.512h0a12.923,12.923,0,0,0-6.145,1.767C1.251,19.614,0,21.4,0,23.308a4.607,4.607,0,0,0,2.344,4.041c.851.631,1.523,1.13,1.524,2.222S3.2,31.162,2.345,31.792A4.6,4.6,0,0,0,0,35.832c0,1.907,1.252,3.694,3.525,5.031a12.933,12.933,0,0,0,6.148,1.77h0a13.133,13.133,0,0,0,9.307-3.821,12.911,12.911,0,0,0,3.855-9.094c.833-.948,1.641-1.891,2.378-2.779,1.261-1.519,2.23-2.773,2.882-3.726C28.964,21.95,29.342,21.176,28.87,20.7ZM18.231,38.049A12.066,12.066,0,0,1,9.68,41.56h0c-3.462,0-8.6-2.406-8.6-5.728a3.571,3.571,0,0,1,1.907-3.177,3.687,3.687,0,0,0,1.956-3.084,3.691,3.691,0,0,0-1.958-3.084,3.576,3.576,0,0,1-1.909-3.179c0-2.04,1.875-3.447,2.993-4.1a11.965,11.965,0,0,1,5.6-1.619h0a12.1,12.1,0,0,1,11.453,8.121c-2.328,2.033-4.849,4.376-6.726,6.26-3.118.4-3.543,2.482-3.854,4.008-.264,1.3-.436,1.928-1.439,2.009a.537.537,0,0,0-.162,1.031,9.828,9.828,0,0,0,3.392.654h0a5.491,5.491,0,0,0,3.186-.9A5.544,5.544,0,0,0,17.67,35.3c1.227-1.241,2.628-2.738,4.014-4.279A11.847,11.847,0,0,1,18.231,38.049ZM16.591,35.2a4.039,4.039,0,0,1-4.257,3.4h0a8.049,8.049,0,0,1-1.645-.182,4.321,4.321,0,0,0,.906-2.224c.295-1.45.574-2.822,2.856-3.148ZM24,26.722c-2.128,2.535-4.7,5.381-6.823,7.545l-.328-.331L15.4,32.477c1.922-1.913,4.388-4.195,6.688-6.191h0c.268-.233.535-.463.8-.687a41.251,41.251,0,0,1,4.783-3.7A41.351,41.351,0,0,1,24,26.722Z" transform="translate(0)"/></g></g></svg>