<svg xmlns="http://www.w3.org/2000/svg" viewBox="0 0 50 50"><defs><style>.a,.b{fill:#df786a;}.a{opacity:0.345;}</style></defs><g transform="translate(7 -299)"><circle class="a" cx="25" cy="25" r="25" transform="translate(-7 299)"/><g transform="translate(3.001 283.203)"><g transform="translate(-0.001 27.798)"><g transform="translate(0 0)"><path class="b" d="M28.9,38.083,15.054,27.944a.759.759,0,0,0-.9,0L.31,38.083a.759.759,0,0,0,.9,1.225l13.4-9.81L28,39.307a.759.759,0,0,0,.9-1.225Z" transform="translate(0.001 -27.798)"/></g></g><g transform="translate(3.22 39.479)"><path class="b" d="M78.463,232.543a.759.759,0,0,0-.759.759v12.081H71.633v-6.595a3.8,3.8,0,0,0-7.591,0v6.595H57.97V233.3a.759.759,0,0,0-1.518,0v12.84a.759.759,0,0,0,.759.759H64.8a.759.759,0,0,0,.756-.7.573.573,0,0,0,0-.059v-7.354a2.277,2.277,0,1,1,4.555,0v7.354a.555.555,0,0,0,0,.058.759.759,0,0,0,.756.7h7.59a.759.759,0,0,0,.759-.759V233.3A.759.759,0,0,0,78.463,232.543Z" transform="translate(-56.452 -232.543)"/></g></g></g></svg>