<svg xmlns="http://www.w3.org/2000/svg" viewBox="0 0 50 50"><defs><style>.a,.b{fill:#f9a495;}.a{opacity:0.345;}</style></defs><g transform="translate(7 -299)"><circle class="a" cx="25" cy="25" r="25" transform="translate(-7 299)"/><g transform="translate(4 310.027)"><path class="b" d="M27.34,9.911a1.354,1.354,0,0,0,.049-1.421,15.049,15.049,0,0,0-26.058,0,1.356,1.356,0,0,0,.05,1.422A14.285,14.285,0,0,0,1.925,23.2a.686.686,0,0,0,.593.341.586.586,0,0,0,.079-.022,4.7,4.7,0,0,0,.085.518A4.836,4.836,0,0,0,8.6,27.46c2.58-.688.076-10.032-2.5-9.343a4.822,4.822,0,0,0-3.424,3.523A12.793,12.793,0,0,1,2.6,10.532a1.355,1.355,0,0,0,1.1-.671,12.315,12.315,0,0,1,21.324,0,1.34,1.34,0,0,0,1.091.654,12.791,12.791,0,0,1-.07,11.13,4.816,4.816,0,0,0-3.426-3.524c-2.58-.689-5.084,8.652-2.5,9.343a4.836,4.836,0,0,0,5.923-3.42,4.739,4.739,0,0,0,.083-.509A.689.689,0,0,0,26.8,23.2,14.282,14.282,0,0,0,27.34,9.911Z"/></g></g></svg>