<svg xmlns="http://www.w3.org/2000/svg" viewBox="0 0 50 50"><defs><style>.a,.b{fill:#ffbd2f;}.a{opacity:0.345;}</style></defs><g transform="translate(7 -299)"><circle class="a" cx="25" cy="25" r="25" transform="translate(-7 299)"/><g transform="translate(5 310.136)"><path class="b" d="M41.954,30.657l-1.372-1.372a1.439,1.439,0,0,0-2.032,0l-7.407,7.408-1.021,3.744-.25.25a.48.48,0,0,0,0,.676l0,.01.009,0a.479.479,0,0,0,.677,0l.25-.25L34.547,40.1l7.407-7.408A1.438,1.438,0,0,0,41.954,30.657Zm-9.7,6.286,4.93-4.93,2.042,2.042-4.93,4.93Zm-.435.927,1.55,1.55L31.238,40Zm9.453-5.861-1.366,1.366-2.042-2.042,1.366-1.366a.475.475,0,0,1,.671,0l1.372,1.372A.474.474,0,0,1,41.273,32.009Z" transform="translate(-15.422 -14.524)"/><path class="b" d="M26.481,12.865a.481.481,0,1,0,0,.963h8.664a.481.481,0,1,0,0-.963Z" transform="translate(-13.486 -6.225)"/><path class="b" d="M35.626,27.346a.481.481,0,0,0-.481-.481H26.481a.481.481,0,1,0,0,.963h8.664A.481.481,0,0,0,35.626,27.346Z" transform="translate(-13.486 -13.487)"/><path class="b" d="M13.8,7.981a.48.48,0,0,0-.679.052L10.109,11.54,8.27,10.161a.481.481,0,1,0-.578.77l2.2,1.65a.481.481,0,0,0,.655-.072l3.3-3.85A.48.48,0,0,0,13.8,7.981Z" transform="translate(-3.89 -3.631)"/><path class="b" d="M13.8,21.981a.48.48,0,0,0-.679.052L10.109,25.54,8.27,24.161a.481.481,0,1,0-.578.77l2.2,1.65a.481.481,0,0,0,.655-.072l3.3-3.85A.48.48,0,0,0,13.8,21.981Z" transform="translate(-3.89 -10.893)"/><path class="b" d="M13.116,37.033,10.109,40.54,8.27,39.161a.481.481,0,1,0-.578.77l2.2,1.65a.481.481,0,0,0,.655-.072l3.3-3.85a.481.481,0,1,0-.731-.626Z" transform="translate(-3.89 -18.673)"/><path class="b" d="M12.033,25.892H5.86a4.9,4.9,0,0,1-4.9-4.9V6.724a4.9,4.9,0,0,1,4.9-4.9H20.13a4.9,4.9,0,0,1,4.9,4.9v5.691a.481.481,0,0,0,.963,0V6.724A5.867,5.867,0,0,0,20.13.864H5.86A5.867,5.867,0,0,0,0,6.724v14.27a5.867,5.867,0,0,0,5.86,5.86h6.172a.481.481,0,1,0,0-.962Z"/></g></g></svg>