<svg xmlns="http://www.w3.org/2000/svg" viewBox="0 0 50 50"><defs><style>.a,.b{fill:#61bec8;}.a{opacity:0.345;}</style></defs><g transform="translate(-196 -299)"><circle class="a" cx="25" cy="25" r="25" transform="translate(196 299)"/><g transform="translate(207 292.886)"><g transform="translate(8.952 39.362)"><path class="b" d="M172.032,402.828a2.376,2.376,0,1,0,2.376,2.376A2.379,2.379,0,0,0,172.032,402.828Zm0,3.425a1.049,1.049,0,1,1,1.049-1.049A1.051,1.051,0,0,1,172.032,406.253Z" transform="translate(-169.656 -402.828)"/></g><g transform="translate(17.286 39.362)"><path class="b" d="M329.977,402.828a2.376,2.376,0,1,0,2.376,2.376A2.379,2.379,0,0,0,329.977,402.828Zm0,3.425a1.049,1.049,0,1,1,1.049-1.049A1.051,1.051,0,0,1,329.977,406.253Z" transform="translate(-327.601 -402.828)"/></g><g transform="translate(10.078 26.852)"><path class="b" d="M201.165,165.755h-9.506a.663.663,0,0,0,0,1.327h9.506a.663.663,0,0,0,0-1.327Z" transform="translate(-190.996 -165.755)"/></g><g transform="translate(10.596 30.297)"><path class="b" d="M209.937,231.035h-8.471a.663.663,0,1,0,0,1.327h8.471a.663.663,0,0,0,0-1.327Z" transform="translate(-200.802 -231.035)"/></g><g transform="translate(0 19.114)"><g transform="translate(0)"><path class="b" d="M26.718,23.9a1.321,1.321,0,0,0-1.028-.489H5.027L4.61,21.382a1.328,1.328,0,0,0-.771-.949L.927,19.169A.663.663,0,0,0,.4,20.386L3.311,21.65,6.52,37.23a1.332,1.332,0,0,0,1.3,1.059H23.712a.663.663,0,1,0,0-1.327H7.82l-.39-1.9H23.834a1.332,1.332,0,0,0,1.3-1.059L26.989,25A1.321,1.321,0,0,0,26.718,23.9Zm-2.884,9.844H7.156L5.3,24.734H25.69Z" transform="translate(0 -19.114)"/></g></g></g></g></svg>