<svg xmlns="http://www.w3.org/2000/svg" viewBox="0 0 50 50"><defs><style>.a,.b{fill:#ffb6b6;}.a{opacity:0.345;}</style></defs><g transform="translate(7 -299)"><circle class="a" cx="25" cy="25" r="25" transform="translate(-7 299)"/><g transform="translate(4 293.902)"><g transform="translate(6.064 20.408)"><g transform="translate(0 0)"><path class="b" d="M124.443,79.858a1.718,1.718,0,0,0-2.23-.962q-.068.027-.134.06l-1.274.638-2.6-3.466a.473.473,0,0,0-.116-.11l-2.837-1.891a.472.472,0,0,0-.189-.074l-6.146-.946a.473.473,0,0,0-.406.132l-3.525,3.511a1.513,1.513,0,0,0,0,2.14l0,0a1.518,1.518,0,0,0,2.067.068l2.856-2.5,2.534.724-2.121,4.66-3.254,4.648-3.867,3.48a1.681,1.681,0,1,0,2.191,2.551l4.261-3.489L112.2,86.49l3.23,2.423-.719,5.015a1.633,1.633,0,0,0,.383,1.3,1.651,1.651,0,0,0,1.267.564A1.669,1.669,0,0,0,118,94.436l1.236-6.592a.473.473,0,0,0-.153-.443l-3.541-3.1,1.507-4.144,2.783,3.18a.473.473,0,0,0,.547.121l3.192-1.412A1.683,1.683,0,0,0,124.443,79.858Zm-1.251,1.328-2.874,1.271-3.081-3.521a.473.473,0,0,0-.8.15l-1.891,5.2a.473.473,0,0,0,.133.517l3.579,3.132-1.188,6.327a.732.732,0,0,1-.741.586.689.689,0,0,1-.682-.787l.756-5.292a.473.473,0,0,0-.184-.445l-3.782-2.837a.473.473,0,0,0-.618.044l-2.8,2.8-4.226,3.457a.735.735,0,0,1-.957-1.115l3.907-3.517a.459.459,0,0,0,.071-.08l3.309-4.728a.456.456,0,0,0,.043-.075l2.364-5.2a.473.473,0,0,0-.3-.65l-3.309-.946a.47.47,0,0,0-.442.1l-3.049,2.668a.568.568,0,0,1-.776-.83l3.357-3.343,5.806.894,2.68,1.788,2.789,3.717a.473.473,0,0,0,.59.139L122.5,79.8a.764.764,0,0,1,.615-.032.794.794,0,0,1,.459.473A.734.734,0,0,1,123.191,81.185Z" transform="translate(-102.616 -73.101)"/></g></g><g transform="translate(2.837 19.935)"><g transform="translate(0 0)"><rect class="b" width="6.146" height="0.946"/></g></g><g transform="translate(0.946 19.935)"><g transform="translate(0 0)"><rect class="b" width="0.946" height="0.946"/></g></g><g transform="translate(4.728 23.717)"><rect class="b" width="0.946" height="0.946"/></g><g transform="translate(0 23.717)"><rect class="b" width="3.782" height="0.946"/></g><g transform="translate(2.364 27.499)"><rect class="b" width="4.728" height="0.946"/></g><g transform="translate(0.946 31.281)"><g transform="translate(0 0)"><rect class="b" width="8.037" height="0.946"/></g></g><g transform="translate(1.891 35.064)"><g transform="translate(0 0)"><rect class="b" width="3.782" height="0.946"/></g></g><g transform="translate(0 35.064)"><g transform="translate(0 0)"><rect class="b" width="0.946" height="0.946"/></g></g><g transform="translate(0.946 38.846)"><rect class="b" width="3.309" height="0.946"/></g><g transform="translate(18.911 17.098)"><g transform="translate(0 0)"><path class="b" d="M324.728,17.1H322.6a2.6,2.6,0,1,0,2.6,2.6V17.571A.473.473,0,0,0,324.728,17.1Zm-.473,2.6a1.648,1.648,0,0,1-2.948,1.019,4.332,4.332,0,0,1,2.948-1.25Zm0-1.176a5.269,5.269,0,0,0-3.3,1.242c0-.022-.007-.043-.007-.066a1.655,1.655,0,0,1,1.655-1.655h1.655Z" transform="translate(-320 -17.098)"/></g></g></g></g></svg>