<svg xmlns="http://www.w3.org/2000/svg" viewBox="0 0 50 50"><defs><style>.a,.b{fill:#72d390;}.a{opacity:0.345;}</style></defs><g transform="translate(7 -299)"><circle class="a" cx="25" cy="25" r="25" transform="translate(-7 299)"/><g transform="translate(5.001 310.499)"><path class="b" d="M238.435,254.357a.508.508,0,1,0,.718,0A.507.507,0,0,0,238.435,254.357Zm0,0" transform="translate(-226.186 -240.824)"/><path class="b" d="M20.323,1.986a57.96,57.96,0,0,0-4.2,4.081l-1.853-.3.85-.85a1.523,1.523,0,1,0-2.155-2.154l-2.4,2.4-8.4-1.367A1.713,1.713,0,0,0,.887,6.874l8.369,6.061L7.689,14.5a12.742,12.742,0,0,0-1.683,2.2L2.1,15.552a1.641,1.641,0,0,0-1.4,2.924l3.2,2.215c-.557,1.229-.9,2.118-.911,2.159a.508.508,0,0,0,.655.655c.041-.015.93-.354,2.159-.911l2.215,3.2a1.641,1.641,0,0,0,2.924-1.4L9.8,20.493A12.751,12.751,0,0,0,12,18.81l1.567-1.567,6.061,8.369a1.714,1.714,0,0,0,3.079-1.28l-1.367-8.4,2.4-2.4a1.523,1.523,0,0,0-2.154-2.155l-.85.85-.3-1.853a57.979,57.979,0,0,0,4.079-4.2l0,0c1.566-2.03,1.933-4.08.911-5.1S22.354.419,20.323,1.986ZM13.685,3.479A.508.508,0,1,1,14.4,4.2L13.036,5.564l-1.235-.2ZM1.482,6.051A.7.7,0,0,1,2,4.8L15.239,6.952,9.984,12.207ZM1.2,16.684a.626.626,0,0,1,.619-.158L5.467,17.6c-.373.654-.75,1.376-1.126,2.158L1.284,17.641A.626.626,0,0,1,1.2,16.684ZM9.816,25.3a.626.626,0,0,1-.957-.086L6.743,22.158c.782-.376,1.5-.753,2.158-1.126l1.073,3.65A.626.626,0,0,1,9.816,25.3ZM22.3,12.1a.508.508,0,1,1,.718.718L21.137,14.7l-.2-1.235Zm-.6,12.4a.7.7,0,0,1-1.254.522l-6.156-8.5,5.255-5.255Zm-10.422-6.4a12.789,12.789,0,0,1-2.431,1.794,37.627,37.627,0,0,1-4.455,2.219,37.146,37.146,0,0,1,2.268-4.536A12.572,12.572,0,0,1,8.408,15.22C20.812,2.845,20.077,3.483,20.83,2.881a2.637,2.637,0,0,1,2.082.706,2.637,2.637,0,0,1,.707,2.082C23.015,6.424,23.646,5.7,11.28,18.092ZM24.488,4.335a3.351,3.351,0,0,0-2.323-2.323c.735-.373,1.973-.79,2.543-.22C25.158,2.242,25.046,3.234,24.488,4.335Zm0,0" transform="translate(0 0)"/><path class="b" d="M268.163,197.789l-1.436,1.436a.508.508,0,0,0,.718.718l1.436-1.436a.508.508,0,1,0-.718-.718Zm0,0" transform="translate(-253.042 -187.129)"/><path class="b" d="M324.725,141.219l-1.437,1.437a.508.508,0,0,0,.718.718l1.437-1.437a.508.508,0,1,0-.718-.718Zm0,0" transform="translate(-306.731 -133.431)"/></g></g></svg>