<svg xmlns="http://www.w3.org/2000/svg" viewBox="0 0 50 50"><defs><style>.a,.b{fill:#fdc185;}.a{opacity:0.345;}</style></defs><g transform="translate(7 -299)"><circle class="a" cx="25" cy="25" r="25" transform="translate(-7 299)"/><path class="b" d="M28.135,4.442H21.718V2.468A2.471,2.471,0,0,0,19.25,0H10.366A2.471,2.471,0,0,0,7.9,2.468V4.442H1.481A1.481,1.481,0,0,0,0,5.923V16.911A1.487,1.487,0,0,0,.987,18.3v6.869a1.481,1.481,0,0,0,1.481,1.481h24.68a1.481,1.481,0,0,0,1.481-1.481V18.3a1.488,1.488,0,0,0,.987-1.394V5.923A1.481,1.481,0,0,0,28.135,4.442ZM8.885,2.468A1.481,1.481,0,0,1,10.366.987H19.25a1.481,1.481,0,0,1,1.481,1.481V4.442h-.987V2.468a.494.494,0,0,0-.494-.494H10.366a.494.494,0,0,0-.494.494V4.442H8.885Zm9.872,1.974h-7.9V2.962h7.9Zm8.885,20.731a.494.494,0,0,1-.494.494H2.468a.494.494,0,0,1-.494-.494v-6.7l10.859,1.5v1.253a1.481,1.481,0,0,0,1.481,1.481H15.3a1.481,1.481,0,0,0,1.481-1.481V19.971l10.859-1.5ZM15.8,21.225a.494.494,0,0,1-.494.494h-.987a.494.494,0,0,1-.494-.494V18.263a.494.494,0,0,1,.494-.494H15.3a.494.494,0,0,1,.494.494Zm12.834-4.314a.494.494,0,0,1-.424.489l-.137.019L16.782,18.975v-.712A1.481,1.481,0,0,0,15.3,16.782h-.987a1.481,1.481,0,0,0-1.481,1.481v.712L1.412,17.4a.494.494,0,0,1-.425-.489V5.923a.494.494,0,0,1,.494-.494H28.135a.494.494,0,0,1,.494.494Zm0,0" transform="translate(3 311)"/></g></svg>