<svg xmlns="http://www.w3.org/2000/svg" viewBox="0 0 25.824 34.57"><defs><style>.a{opacity:0.137;}.b{fill:#f0f0f1;}</style></defs><g class="a" transform="translate(-48.173)"><g transform="translate(48.173)"><path class="b" d="M72.863,2.8H68.574V1.135a1.135,1.135,0,0,0-2.269,0V2.8H62.22V1.135a1.135,1.135,0,1,0-2.269,0V2.8H55.866V1.135a1.135,1.135,0,0,0-2.269,0V2.8H49.308a1.135,1.135,0,0,0-1.135,1.135v29.5a1.135,1.135,0,0,0,1.135,1.135H72.863A1.135,1.135,0,0,0,74,33.435V3.936A1.135,1.135,0,0,0,72.863,2.8ZM71.728,32.3H50.442V5.071H53.6V6.4a1.135,1.135,0,0,0,2.269,0V5.071H59.95V6.4a1.135,1.135,0,1,0,2.269,0V5.071H66.3V6.4a1.135,1.135,0,0,0,2.269,0V5.071h3.154Z" transform="translate(-48.173)"/><path class="b" d="M118.485,139.758H105.051a1.135,1.135,0,0,0,0,2.269h13.435a1.135,1.135,0,0,0,0-2.269Z" transform="translate(-98.856 -127.071)"/><path class="b" d="M118.485,209.758H105.051a1.135,1.135,0,0,0,0,2.269h13.435a1.135,1.135,0,0,0,0-2.269Z" transform="translate(-98.856 -190.717)"/><path class="b" d="M118.485,279.758H105.051a1.135,1.135,0,1,0,0,2.269h13.435a1.135,1.135,0,1,0,0-2.269Z" transform="translate(-98.856 -254.363)"/></g></g></svg>