<svg xmlns="http://www.w3.org/2000/svg" viewBox="0 0 35.896 31.999"><defs><style>.a{opacity:0.137;}.b{fill:#f0f0f1;}</style></defs><g class="a" transform="translate(0.001 -27.798)"><g transform="translate(-0.001 27.798)"><g transform="translate(0 0)"><path class="b" d="M35.514,40.436,18.5,27.978a.932.932,0,0,0-1.1,0L.381,40.436a.933.933,0,0,0,1.1,1.505L17.948,29.886,34.412,41.941a.933.933,0,0,0,1.1-1.505Z" transform="translate(0.001 -27.798)"/></g></g><g transform="translate(3.957 42.152)"><path class="b" d="M83.5,232.543a.933.933,0,0,0-.933.933v14.846H75.106v-8.1a4.664,4.664,0,0,0-9.327,0v8.1H58.317V233.476a.933.933,0,0,0-1.865,0v15.779a.933.933,0,0,0,.933.933h9.327a.932.932,0,0,0,.929-.86.7.7,0,0,0,0-.073v-9.036a2.8,2.8,0,1,1,5.6,0v9.036a.684.684,0,0,0,0,.072.932.932,0,0,0,.929.861H83.5a.933.933,0,0,0,.933-.933V233.476A.933.933,0,0,0,83.5,232.543Z" transform="translate(-56.452 -232.543)"/></g></g></svg>