<svg xmlns="http://www.w3.org/2000/svg" viewBox="0 0 52.16 50.551"><defs><style>.a{opacity:0.139;}.b{fill:#f0f0f1;}</style></defs><g class="a" transform="translate(0 -0.864)"><path class="b" d="M53.384,32.333,50.73,29.678a2.785,2.785,0,0,0-3.932,0L32.463,44.014,30.487,51.26,30,51.743A.93.93,0,0,0,30,53.052l0,.019.018,0a.928.928,0,0,0,1.31,0l.484-.484L39.05,50.6,53.385,36.265A2.783,2.783,0,0,0,53.384,32.333ZM34.614,44.5l9.541-9.54,3.952,3.951-9.541,9.541Zm-.841,1.793,3,3-4.124,1.125ZM52.067,34.948l-2.644,2.644-3.952-3.951L48.115,31a.92.92,0,0,1,1.3,0l2.655,2.655A.918.918,0,0,1,52.067,34.948Z" transform="translate(-2.038 -1.919)"/><path class="b" d="M26.931,12.865a.931.931,0,1,0,0,1.863H43.7a.931.931,0,0,0,0-1.863Z" transform="translate(-1.782 -0.823)"/><path class="b" d="M44.629,27.8a.931.931,0,0,0-.931-.931H26.931a.931.931,0,1,0,0,1.863H43.7A.932.932,0,0,0,44.629,27.8Z" transform="translate(-1.782 -1.782)"/><path class="b" d="M19.683,8.089a.93.93,0,0,0-1.313.1l-5.82,6.788-3.56-2.67A.931.931,0,1,0,7.873,13.8l4.258,3.194a.932.932,0,0,0,1.267-.14L19.784,9.4A.93.93,0,0,0,19.683,8.089Z" transform="translate(-0.514 -0.48)"/><path class="b" d="M19.683,22.089a.93.93,0,0,0-1.313.1l-5.82,6.788-3.56-2.67A.931.931,0,1,0,7.873,27.8l4.258,3.194a.932.932,0,0,0,1.267-.14L19.784,23.4A.93.93,0,0,0,19.683,22.089Z" transform="translate(-0.514 -1.44)"/><path class="b" d="M18.369,37.19l-5.82,6.787L8.99,41.308A.931.931,0,1,0,7.873,42.8l4.258,3.194a.932.932,0,0,0,1.267-.14L19.784,38.4a.931.931,0,1,0-1.415-1.211Z" transform="translate(-0.514 -2.468)"/><path class="b" d="M23.286,49.3H11.341a9.489,9.489,0,0,1-9.478-9.478V12.205a9.488,9.488,0,0,1,9.478-9.478H38.957a9.488,9.488,0,0,1,9.478,9.478V23.219a.931.931,0,0,0,1.863,0V12.205A11.354,11.354,0,0,0,38.957.864H11.341A11.355,11.355,0,0,0,0,12.205V39.821A11.354,11.354,0,0,0,11.341,51.162H23.286a.931.931,0,1,0,0-1.862Z"/></g></svg>